<?xml version="1.0" encoding="UTF-8" standalone="no"?>
<!DOCTYPE svg PUBLIC "-//W3C//DTD SVG 1.1//EN" "http://www.w3.org/Graphics/SVG/1.1/DTD/svg11.dtd">
<svg version="1.1" xmlns="http://www.w3.org/2000/svg" xmlns:xlink="http://www.w3.org/1999/xlink" preserveAspectRatio="xMidYMid meet" viewBox="0 0 640 640" width="640" height="640"><defs><path d="M1.69 0L34.08 0L34.08 640L1.69 640L1.69 0Z" id="d2NYveYLpk"></path><path d="M34.08 0L640 0L640 27.75L34.08 27.75L34.08 0Z" id="bGX2w8apN"></path><path d="M613.66 26.34L640 26.34L640 637.61L613.66 637.61L613.66 26.34Z" id="a8fV8Z3jNl"></path><path d="M1.69 615.07L640 615.07L640 640L1.69 640L1.69 615.07Z" id="a15EUUFAXW"></path><path d="M45.93 17.76C50.83 17.04 55.41 20.58 56.15 25.67C58.21 39.74 41.49 49.33 41.55 49.71C41.55 49.71 41.55 49.71 41.55 49.71C41.49 49.33 22.73 44.94 20.67 30.86C19.93 25.77 23.3 21.07 28.19 20.35C33.09 19.64 37.59 22.67 38.34 27.75C37.59 22.67 41.03 18.48 45.93 17.76Z" id="a4XGv7hSu4"></path><path d="M66.23 20.31C70.65 20.31 74.23 23.91 74.23 28.35C74.23 40.63 58.23 46.73 58.23 47.07C58.23 47.07 58.23 47.07 58.23 47.07C58.23 46.73 42.24 40.63 42.24 28.34C42.24 23.91 45.82 20.31 50.24 20.31C54.65 20.31 58.23 23.46 58.23 27.9C58.23 23.46 61.81 20.31 66.23 20.31Z" id="auDZ0nH0i"></path><path d="M53.1 37.21C56.6 37.21 59.44 39.86 59.44 43.13C59.44 52.19 46.76 56.68 46.76 56.93C46.76 56.93 46.76 56.93 46.76 56.93C46.76 56.68 34.08 52.19 34.08 43.13C34.08 39.86 36.92 37.21 40.42 37.21C43.92 37.21 46.76 39.53 46.76 42.8C46.76 39.53 49.6 37.21 53.1 37.21Z" id="g1izNzVk0M"></path><path d="M32.94 33.64C35.31 33.11 37.69 34.71 38.25 37.22C39.79 44.17 31.96 49.52 32 49.71C32 49.71 32 49.71 32 49.71C31.96 49.52 22.6 47.99 21.06 41.04C20.5 38.53 21.97 36.07 24.35 35.55C26.72 35.02 29.04 36.37 29.6 38.88C29.04 36.37 30.57 34.16 32.94 33.64Z" id="btTmXaupZ"></path><path d="M619.91 19.27C625.26 19.18 629.66 23.17 629.75 28.19C629.99 42.1 610.75 49.33 610.76 49.71C610.76 49.71 610.76 49.71 610.76 49.71C610.75 49.33 591.27 42.77 591.03 28.86C590.94 23.84 595.2 19.7 600.55 19.6C605.9 19.51 610.29 23 610.38 28.02C610.29 23 614.57 19.36 619.91 19.27Z" id="a1qJXn4w65"></path><path d="M607.85 27.75C613.01 27.75 617.18 31.72 617.18 36.63C617.18 50.21 598.52 56.95 598.52 57.32C598.52 57.32 598.52 57.32 598.52 57.32C598.52 56.95 579.86 50.21 579.86 36.63C579.86 31.72 584.04 27.75 589.19 27.75C594.34 27.75 598.52 31.23 598.52 36.14C598.52 31.23 602.7 27.75 607.85 27.75Z" id="e3fNEWFCQ3"></path><path d="M620 39.15C623.5 39.15 626.34 41.99 626.34 45.5C626.34 55.2 613.66 60.01 613.66 60.28C613.66 60.28 613.66 60.28 613.66 60.28C613.66 60.01 600.99 55.2 600.99 45.49C600.99 41.99 603.82 39.15 607.32 39.15C610.82 39.15 613.66 41.64 613.66 45.14C613.66 41.64 616.5 39.15 620 39.15Z" id="b1TIRCIvE"></path><path d="M594.3 42.54C596.63 42.54 598.52 44.62 598.52 47.19C598.52 54.3 590.07 57.83 590.07 58.03C590.07 58.03 590.07 58.03 590.07 58.03C590.07 57.83 581.62 54.3 581.62 47.19C581.62 44.62 583.51 42.54 585.85 42.54C588.18 42.54 590.07 44.36 590.07 46.93C590.07 44.36 591.96 42.54 594.3 42.54Z" id="a5Hnu2onx6"></path><path d="M45.31 593.24C51.39 593.24 56.33 597.41 56.33 602.54C56.33 616.77 34.29 623.83 34.29 624.23C34.29 624.23 34.29 624.23 34.29 624.23C34.29 623.83 12.25 616.77 12.25 602.54C12.25 597.4 17.19 593.24 23.27 593.24C29.36 593.24 34.29 596.89 34.29 602.03C34.29 596.89 39.22 593.24 45.31 593.24Z" id="eCw7cWMr0"></path><path d="M59.22 600.78C64.17 600.78 68.18 604.37 68.18 608.81C68.18 621.1 50.25 627.2 50.25 627.54C50.25 627.54 50.25 627.54 50.25 627.54C50.25 627.2 32.32 621.1 32.32 608.81C32.32 604.37 36.34 600.77 41.29 600.77C46.24 600.77 50.25 603.93 50.25 608.36C50.25 603.93 54.27 600.78 59.22 600.78Z" id="b3tV9ipzAS"></path><path d="M43.74 614.16C47.34 614.16 50.25 617 50.25 620.5C50.25 630.2 37.22 635.01 37.22 635.28C37.22 635.28 37.22 635.28 37.22 635.28C37.22 635.01 24.2 630.2 24.2 620.5C24.2 616.99 27.11 614.15 30.71 614.15C34.31 614.15 37.22 616.64 37.22 620.15C37.22 616.64 40.14 614.16 43.74 614.16Z" id="a7CnxMEKf"></path><path d="M28.98 609.23C31.8 609.23 34.08 611.31 34.08 613.88C34.09 620.99 23.87 624.52 23.87 624.72C23.87 624.72 23.87 624.72 23.87 624.72C23.87 624.52 13.66 620.99 13.66 613.88C13.66 611.31 15.95 609.23 18.77 609.23C21.59 609.23 23.87 611.05 23.87 613.62C23.87 611.05 26.16 609.23 28.98 609.23Z" id="bgZqLmNT0"></path><path d="M609.54 593.24C615.63 593.24 620.56 597.31 620.56 602.33C620.56 616.24 598.52 623.14 598.52 623.52C598.52 623.52 598.52 623.52 598.52 623.52C598.52 623.14 576.48 616.24 576.48 602.33C576.48 597.31 581.42 593.24 587.5 593.24C593.59 593.24 598.52 596.81 598.52 601.83C598.52 596.81 603.45 593.24 609.54 593.24Z" id="e2wBYjGyHM"></path><path d="M599.23 603.94C604.28 603.94 608.38 607.45 608.38 611.77C608.38 623.73 590.07 629.67 590.07 630C590.07 630 590.07 630 590.07 630C590.07 629.67 571.76 623.73 571.76 611.77C571.76 607.45 575.86 603.94 580.92 603.94C585.97 603.94 590.07 607.01 590.07 611.33C590.07 607.01 594.17 603.94 599.23 603.94Z" id="aecApLuht"></path><path d="M610.84 611.69C614.35 611.69 617.18 614.15 617.18 617.19C617.18 625.6 604.51 629.77 604.51 630C604.51 630 604.51 630 604.51 630C604.51 629.77 591.83 625.6 591.83 617.19C591.83 614.15 594.67 611.69 598.17 611.69C601.67 611.69 604.51 613.85 604.51 616.88C604.51 613.85 607.34 611.69 610.84 611.69Z" id="b1Tts7UZx"></path><path d="M579.68 611.69C582.5 611.69 584.79 613.58 584.79 615.92C584.79 622.39 574.58 625.6 574.58 625.77C574.58 625.77 574.58 625.77 574.58 625.77C574.58 625.6 564.37 622.39 564.37 615.92C564.37 613.58 566.65 611.69 569.47 611.69C572.29 611.69 574.58 613.35 574.58 615.68C574.58 613.35 576.86 611.69 579.68 611.69Z" id="m4pl3gqTr"></path><path d="" id="a2b2M00Gip"></path><path d="" id="b2nicVAg6O"></path><path d="" id="b2k08j5KHv"></path><path d="M81.97 88.66L92.54 29.86L81.97 88.66Z" id="c18PebPHly"></path><path d="M146.06 84.79L136.2 27.75L115.07 74.23L92.54 29.86" id="a4r44p2AGu"></path><path d="M202.39 65.77C202.39 77.43 192.77 86.9 180.92 86.9C169.06 86.9 159.44 77.43 159.44 65.77C159.44 54.11 169.06 44.65 180.92 44.65C192.77 44.65 202.39 54.11 202.39 65.77Z" id="g6s9F63xw"></path><path d="M243.24 34.49L243.24 76.34L220 34.49L220 78.45" id="e1ewmdcFzg"></path><path d="" id="c26ljGl1ye"></path><path d="M256.62 34.77L255.92 45.31L255.21 55.85L255.21 66.43L255.92 77.07" id="a1MhMHrhJL"></path><path d="M250.28 34.08L260.85 34.08L270.7 36.9L277.04 44.65L281.27 55.21L281.97 65.77L279.15 75.63L270 79.86L260.14 83.38L250.28 86.2" id="b27OZ5eEfl"></path><path d="M291.13 77.07L298.89 52.66L303.8 37.21" id="a2AcJUGJM1"></path><path d="M315.77 74.23L310.02 57.37L303.8 39.15" id="c5enHP8aC"></path><path d="M312.96 56.93L297.46 57.14" id="c2xDyvMy0"></path><path d="M354.51 39.15L339.01 68.59L320 41.63" id="b3CjeQ822d"></path><path d="M339.01 88.66L339.01 68.59" id="fnfMRrtaV"></path></defs><g><g><g><use xlink:href="#d2NYveYLpk" opacity="1" fill="#122668" fill-opacity="1"></use></g><g><use xlink:href="#bGX2w8apN" opacity="1" fill="#122068" fill-opacity="1"></use></g><g><use xlink:href="#a8fV8Z3jNl" opacity="1" fill="#122c5f" fill-opacity="1"></use></g><g><use xlink:href="#a15EUUFAXW" opacity="1" fill="#122f68" fill-opacity="1"></use></g><g><use xlink:href="#a4XGv7hSu4" opacity="1" fill="#7c7cbf" fill-opacity="1"></use></g><g><use xlink:href="#auDZ0nH0i" opacity="1" fill="#125168" fill-opacity="1"></use></g><g><use xlink:href="#g1izNzVk0M" opacity="1" fill="#237889" fill-opacity="1"></use></g><g><use xlink:href="#btTmXaupZ" opacity="1" fill="#67b3c6" fill-opacity="1"></use></g><g><use xlink:href="#a1qJXn4w65" opacity="1" fill="#8a9acc" fill-opacity="1"></use></g><g><use xlink:href="#e3fNEWFCQ3" opacity="1" fill="#316f78" fill-opacity="1"></use></g><g><use xlink:href="#b1TIRCIvE" opacity="1" fill="#26807f" fill-opacity="1"></use></g><g><use xlink:href="#a5Hnu2onx6" opacity="1" fill="#6eb7b7" fill-opacity="1"></use></g><g><use xlink:href="#eCw7cWMr0" opacity="1" fill="#7d6e9b" fill-opacity="1"></use></g><g><use xlink:href="#b3tV9ipzAS" opacity="1" fill="#114e4e" fill-opacity="1"></use></g><g><use xlink:href="#a7CnxMEKf" opacity="1" fill="#1b6f6f" fill-opacity="1"></use></g><g><use xlink:href="#bgZqLmNT0" opacity="1" fill="#38a4a4" fill-opacity="1"></use></g><g><use xlink:href="#e2wBYjGyHM" opacity="1" fill="#8b70ba" fill-opacity="1"></use></g><g><use xlink:href="#aecApLuht" opacity="1" fill="#15535c" fill-opacity="1"></use></g><g><use xlink:href="#b1Tts7UZx" opacity="1" fill="#146874" fill-opacity="1"></use></g><g><use xlink:href="#m4pl3gqTr" opacity="1" fill="#2fa9ba" fill-opacity="1"></use></g><g><g><use xlink:href="#a2b2M00Gip" opacity="1" fill-opacity="0" stroke="#000000" stroke-width="1" stroke-opacity="1"></use></g></g><g><g><use xlink:href="#b2nicVAg6O" opacity="1" fill-opacity="0" stroke="#000000" stroke-width="1" stroke-opacity="1"></use></g></g><g><g><use xlink:href="#b2k08j5KHv" opacity="1" fill-opacity="0" stroke="#000000" stroke-width="1" stroke-opacity="1"></use></g></g><g><g><use xlink:href="#c18PebPHly" opacity="1" fill-opacity="0" stroke="#000000" stroke-width="1" stroke-opacity="1"></use></g></g><g><g><use xlink:href="#a4r44p2AGu" opacity="1" fill-opacity="0" stroke="#000000" stroke-width="1" stroke-opacity="1"></use></g></g><g><use xlink:href="#g6s9F63xw" opacity="1" fill="#0e8476" fill-opacity="1"></use></g><g><g><use xlink:href="#e1ewmdcFzg" opacity="1" fill-opacity="0" stroke="#000000" stroke-width="1" stroke-opacity="1"></use></g></g><g><g><use xlink:href="#c26ljGl1ye" opacity="1" fill-opacity="0" stroke="#000000" stroke-width="1" stroke-opacity="1"></use></g></g><g><g><use xlink:href="#a1MhMHrhJL" opacity="1" fill-opacity="0" stroke="#000000" stroke-width="1" stroke-opacity="1"></use></g></g><g><g><use xlink:href="#b27OZ5eEfl" opacity="1" fill-opacity="0" stroke="#000000" stroke-width="1" stroke-opacity="1"></use></g></g><g><g><use xlink:href="#a2AcJUGJM1" opacity="1" fill-opacity="0" stroke="#000000" stroke-width="1" stroke-opacity="1"></use></g></g><g><g><use xlink:href="#c5enHP8aC" opacity="1" fill-opacity="0" stroke="#000000" stroke-width="1" stroke-opacity="1"></use></g></g><g><g><use xlink:href="#c2xDyvMy0" opacity="1" fill-opacity="0" stroke="#000000" stroke-width="1" stroke-opacity="1"></use></g></g><g><g><use xlink:href="#b3CjeQ822d" opacity="1" fill-opacity="0" stroke="#000000" stroke-width="1" stroke-opacity="1"></use></g></g><g><g><use xlink:href="#fnfMRrtaV" opacity="1" fill-opacity="0" stroke="#000000" stroke-width="1" stroke-opacity="1"></use></g></g></g></g></svg>